<svg width="110" height="63" viewBox="0 0 110 63" fill="none" xmlns="http://www.w3.org/2000/svg">
<g clip-path="url(#clip0_161_21)">
<path fill-rule="evenodd" clip-rule="evenodd" d="M100.018 33.0237C98.7807 33.1607 97.8115 36.1589 97.4439 39.751C97.0761 43.3429 97.4439 46.17 98.6772 46.033C99.9106 45.896 100.903 42.8748 101.286 39.2676C101.669 35.6606 101.286 32.8715 100.029 33.0084L100.018 33.0237ZM70.6426 18.5266C67.5781 18.7206 65.5557 27.0915 64.6325 36.0753C63.7095 45.059 64.0771 52.9849 67.1339 52.787C70.1906 52.5891 71.9525 44.5224 72.8795 35.5426C73.8064 26.5628 73.7068 18.3401 70.6426 18.5266ZM98.5661 46.9043C95.973 47.1935 93.9314 45.957 93.0351 43.8337C91.6943 46.2119 89.7946 48.1905 87.6073 48.5559C85.2439 48.9364 82.6508 47.947 81.697 45.3519C78.1385 50.3821 72.7071 53.8753 66.9232 54.2518C57.8145 54.8379 51.1917 47.4713 51.793 37.6544C51.7899 36.7829 51.8666 35.913 52.0228 35.0555C53.4784 27.0307 52.9383 21.5629 48.1502 24.0743C44.703 25.8892 43.8104 33.0198 43.8104 33.0198L43.7838 32.9438C43.4007 36.1096 43.0406 39.0699 42.7954 41.4632C42.756 41.8179 42.6958 42.1697 42.6153 42.5173C41.2057 52.5549 32.4188 63.6732 17.17 62.8855C4.80165 62.2463 -2.51826 51.7596 1.07083 41.0599C2.73322 36.0867 8.85805 32.118 13.1864 32.997C18.0511 33.9826 18.5069 37.4527 18.1084 37.643C16.9938 38.1756 14.0368 38.4267 11.7998 41.2806C8.35243 45.6753 6.43723 59.7921 18.2655 60.8918C28.9907 61.8885 33.6715 48.335 28.0713 41.0827C25.7731 38.1301 20.4105 33.3547 15.9903 28.4462C11.8687 23.8801 10.2063 19.8811 10.7886 14.2116C11.2712 9.48196 15.7872 -0.559491 28.7034 0.106386C34.3035 0.395567 40.2788 4.14351 38.2028 8.35188C36.9464 10.8936 33.2653 10.749 32.1316 8.88077C32.0512 8.7476 33.9013 8.05127 34.108 6.72714C34.4183 4.75232 32.1929 1.65123 28.4122 1.45717C20.9813 1.07667 16.741 9.78256 22.2338 14.8014C26.3821 18.5912 30.611 22.3886 34.2537 25.6153C34.6367 21.2966 34.966 17.8911 35.0733 16.8257C35.1152 16.4439 35.1178 16.0588 35.081 15.6766C35.081 15.6766 30.8675 15.5053 31.7103 14.535C31.8443 14.3828 35.1921 14.634 39.7541 12.4727C43.4197 10.73 47.2771 7.22177 47.2771 7.22177C47.2771 7.22177 46.0052 16.0304 44.7643 25.3793C46.8136 22.7501 50.2417 19.6985 55.1064 19.7099C57.4581 19.7099 59.2547 20.273 60.5992 21.1938C63.4899 18.8727 67.0181 17.4712 70.723 17.1719C80.0922 16.5631 86.8375 24.3749 85.784 34.6142C85.784 34.7092 85.7611 34.8007 85.7496 34.8957C86.8701 34.0493 88.167 33.4629 89.5455 33.1796C92.74 32.6355 93.7092 34.675 93.1537 35.9993C92.4835 37.5972 90.4725 37.5212 90.5721 37.2853C91.8246 33.9027 90.3116 33.4346 89.5991 33.9254C88.6071 34.6104 87.1361 37.2776 86.6228 41.155C86.1135 44.9601 86.7914 47.8137 88.0708 47.4446C91.0356 46.581 91.5182 39.8346 93.9389 36.3378C94.1727 35.9993 94.3642 35.7366 94.5326 35.5236C95.9307 33.6516 97.934 32.3045 100.106 32.0648C103.902 31.6425 106.637 34.6179 106.215 38.7122C105.794 42.8063 102.37 46.4973 98.5738 46.9043H98.5661ZM109.82 47.3459C109.708 47.936 109.372 48.4603 108.881 48.8104C108.391 49.1604 107.783 49.3092 107.185 49.2255C106.9 49.1611 106.63 49.0401 106.394 48.8701C106.156 48.7 105.957 48.4843 105.806 48.2353C105.655 47.9869 105.556 47.7103 105.515 47.4226C105.474 47.1353 105.492 46.8424 105.568 46.5619C105.676 45.9681 106.011 45.4383 106.503 45.0837C106.995 44.7291 107.605 44.5773 108.207 44.6595C108.495 44.723 108.767 44.8444 109.006 45.0156C109.246 45.1871 109.447 45.4052 109.599 45.6568C109.751 45.9079 109.849 46.1875 109.888 46.4779C109.927 46.7682 109.907 47.0634 109.827 47.3459H109.82Z" fill="#499299"/>
</g>
<defs>
<clipPath id="clip0_161_21">
<rect width="110" height="63" fill="white"/>
</clipPath>
</defs>
</svg>
